<svg xmlns="http://www.w3.org/2000/svg" x="0px" y="0px" width="300px" height="299.82px">
<path fill="#FFFFFF" d="M150,1.53c81.99,0,148.47,66.43,148.47,148.38c0,81.96-66.48,148.39-148.47,148.39
	c-82,0-148.46-66.44-148.46-148.39C1.53,67.96,68,1.53,150,1.53"/>
<path fill="#1A3660" d="M150,13.06c75.58,0,136.86,61.27,136.86,136.86c0,75.58-61.28,136.84-136.86,136.84
	S13.15,225.49,13.15,149.92C13.15,74.32,74.42,13.06,150,13.06 M60.34,149.92c0,49.52,40.14,89.67,89.66,89.67
	s89.68-40.15,89.68-89.67S199.53,60.24,150,60.24C100.48,60.24,60.34,100.4,60.34,149.92 M48.94,162.2l-13.02,2.9
	c-2.88,0.66-5.76,1.67-7.25,4.28c-1.28,2.24-1.51,4.72-0.78,8.03c0.68,3.11,2.18,5.47,4.33,6.83c2.21,1.41,4.98,1.74,8.26,1.01
	l13.67-3.02l-0.37-1.06l-0.16-0.45l-0.06-0.56l-0.08-1.07l-0.74,0.18l-12.13,2.7c-3.16,0.67-5.6,0.51-7.26-0.54
	c-1.26-0.8-2.1-2.13-2.51-3.98c-1.06-4.77,0.73-7.01,6.58-8.33l13.16-2.92l-0.37-1.22l-0.23-0.81l-0.15-0.96l-0.15-1.18L48.94,162.2
	z M58.77,198.06l-19.15,13.66l0.72,0.78l0.35,0.4l0.25,0.43l0.54,1l0.59-0.45c0,0,11.63-8.3,13.54-9.62
	c-0.49,2.13-4.36,19.75-4.36,19.75l-0.71,2.83l0.18,0.29l0.95,1.34l19.71-14.05l-0.76-0.83l-0.32-0.36l-0.27-0.47l-0.51-0.97
	l-0.61,0.46c0,0-11.01,7.87-12.86,9.19c0.43-2.13,4.58-21.96,4.58-21.96l-1.31-1.83L58.77,198.06z M83.18,228.35l-14.31,18.64
	l1.09,0.71l0.68,0.46l0.73,0.65l0.87,0.78l0.44-0.59L87,230.35l-0.99-0.61l-0.8-0.54l-0.63-0.56l-0.98-0.87L83.18,228.35z
	 M99.21,240.32c0.12,1.35,0.16,4.61,0.2,8.41c0.06,5.12,0.15,11.54,0.44,16.51l0.02,0.48l0.73,0.18l0.34,0.07
	c0.01,0.02,0.25,0.16,0.25,0.16l0.73,0.47l0.37-0.45c2.56-3.03,15.92-15.97,17.52-17.29l0.94-0.8l-1.63-0.5l-0.63-0.19l-0.7-0.35
	l-0.79-0.43l-0.32,0.36l-0.43,0.39c-0.04,0.04-4.02,4.4-4.02,4.4c0.02,0-6.66,7-6.66,7l-2.11,1.97c0,0-0.18,0.16-0.28,0.25
	c0-1.83,0.07-9.75,0.07-9.75l0.17-6.24l0.1-3.48v-0.48l-0.46-0.13l-0.61-0.2l-0.89-0.32l-0.99-0.48l-1.48-0.75L99.21,240.32z
	 M134.3,252.06l-1.83,23.27l13.4,1.05l-0.04-1.07l-0.01-0.6l0.09-0.51l0.26-1.28l-0.89,0.1c-1,0.08-2,0.11-2.97,0.06l-1.51-0.06
	c0,0-2.88-0.18-3.84-0.24c0.09-1.08,0.57-7.3,0.66-8.35c1.02,0.06,4.48,0.35,4.48,0.35l1.64,0.2l2.08,0.3l-0.05-0.78l-0.02-0.45
	v-0.43l0.09-0.51l0.24-1.05h-0.8l-1.31-0.02l-1.64-0.05c0,0-3.48-0.26-4.48-0.34c0.08-1.05,0.47-6,0.55-7.04
	c0.73,0.08,1.9,0.17,1.9,0.17l3.3,0.31c1.12,0.19,2.03,0.36,2.85,0.59l0.89,0.25l-0.06-1.25l-0.01-0.59l0.09-0.52l0.22-1.14
	l-0.75-0.04l-12.45-0.98L134.3,252.06z M171.78,249.66l-7.55,1.68l5.23,23.59l1.12-0.35l0.92-0.26l0.83-0.13l1.31-0.19l-0.16-0.69
	c0,0-2.02-9.06-2.28-10.22c0.15-0.02,0.19-0.04,0.3-0.07c0.4,0.32,3.03,2.31,3.03,2.31c-0.02-0.03,4.92,4.11,4.92,4.11
	c0-0.02,2.65,2.34,2.65,2.34l0.28,0.25l0.36-0.1l0.55-0.15l1.25-0.36l1.12-0.2l2.18-0.34l-1.13-0.93l-0.78-0.68
	c-0.03-0.02-2-1.5-2-1.5s-5.71-4.65-7.8-6.35c3.13-1.59,4.91-3.9,4.91-6.55c0-0.45-0.05-0.92-0.15-1.38
	C180.06,249.75,177.06,248.5,171.78,249.66 M172.98,252.06c2.1-0.15,3.36,0.77,3.79,2.76c0.09,0.33,0.11,0.63,0.11,0.95
	c0,1.65-1.01,3.06-2.86,3.88c-1.12,0.48-2.52,0.79-3.37,0.94c-0.23-0.98-1.49-6.7-1.71-7.71
	C170.14,252.56,171.94,252.11,172.98,252.06 M201.19,237L201.19,237c-2.21,1.25-3.72,3.04-4.26,5c-0.47,1.68-0.22,3.45,0.74,5.11
	c2.17,3.84,5.56,3.37,8.55,2.95c2.91-0.41,4.75-0.56,5.93,1.49c0.57,1.02,0.74,2.22,0.43,3.31c-0.28,0.99-0.89,1.79-1.83,2.32
	c-1.79,1.01-3.46,0.91-5.74-0.37l-0.32-0.19l-1.13,0.64l0.22,0.54c0.36,0.86,0.7,1.8,0.88,2.75l0.08,0.4l0.37,0.13
	c1.91,0.61,4.79-0.25,6.21-1.05c2.3-1.3,3.91-3.23,4.51-5.46c0.56-2.03,0.28-4.14-0.84-6.12c-2.03-3.58-5.4-3.1-8.38-2.69
	c-2.58,0.36-4.82,0.69-6.05-1.49c-0.43-0.78-0.54-1.58-0.32-2.38c0.24-0.88,0.88-1.66,1.79-2.18c1.45-0.8,2.96-0.64,4.29,0.43
	l0.36,0.28l1.12-0.61l-0.23-0.91c-0.19-0.79-0.36-1.55-0.44-2.3l-0.02-0.49l-0.49-0.11C204.69,235.57,202.57,236.24,201.19,237
	 M222.17,221.21l-0.38,0.46l-0.56,0.62l-0.7,0.64l-0.91,0.78l0.53,0.49l16.77,16.48l0.75-0.92l0.63-0.71l0.61-0.55l1-0.88
	l-0.51-0.49l-16.77-16.48L222.17,221.21z M241.85,192.54l-8.82,15.61l1.06,0.42l0.47,0.22l0.48,0.32l0.94,0.7l0.33-0.74
	c0.63-1.46,1.43-3.27,2.9-5.92c1.09,0.61,18.54,10.49,18.54,10.49l0.49-1.08l0.42-0.85l0.46-0.71l0.72-1.09l-0.63-0.33
	c0,0-16.79-9.51-17.89-10.15c1.06-1.84,2.18-3.61,3.37-5.21l0.51-0.69l-1.1-0.43l-0.53-0.24l-0.44-0.3l-0.93-0.7L241.85,192.54z
	 M249.48,161.03l-0.05,0.52l-0.08,0.73l-0.2,0.85l-0.23,0.78l0.34,0.28l1.11,0.9c1.97,1.57,6.22,4.98,7.95,6.61
	c-2.65,1.01-8.72,3.09-11.15,3.81l-0.41,0.11l-0.15,1.15l-0.13,1.07l-0.29,1.19l-0.46,1.83l1.22-0.46c0,0,13.92-5.43,14.27-5.56
	c0.35,0.06,9.94,1.86,9.94,1.86l0.14-1.18l0.11-0.94l0.2-0.83l0.34-1.25l-0.71-0.14c0,0-9.59-1.77-9.91-1.83
	c-0.9-0.64-1.9-1.48-2.76-2.3l-5.12-4.68l-3.81-3.91L249.48,161.03z M38.69,95.23L38.6,95.6l-0.15,0.47l-0.26,0.49l-0.53,0.93
	l0.71,0.28c0,0,12.51,5.18,14.61,6.05c-2.03,0.75-21.04,7.71-21.04,7.71l-0.87,2.11l22.36,9.26l0.29-1.02l0.15-0.54l0.23-0.45
	l0.57-0.98l-0.71-0.27c0,0-13.19-5.46-15.32-6.35c2.05-0.74,19.05-6.81,19.05-6.81l2.8-0.89l0.13-0.28l0.64-1.53L38.9,94.52
	L38.69,95.23z M60.82,64.54L60,65.41l10.35,25.05l0.91-1.2l0.46-0.6l0.5-0.44l0.81-0.7l-0.28-0.46c-1.49-2.56-2.7-5.22-3.88-7.77
	c0,0-0.08-0.19-0.16-0.35c0.53-0.57,4.68-4.95,5.21-5.5c2.56,0.93,5.4,2.11,8.48,3.48l0.46,0.22l0.67-0.83l0.76-0.88l0.73-0.69
	l1.32-1.22l-1.04-0.36l-24.18-8.92L60.82,64.54z M64.87,70.03c1.76,0.63,5.1,1.87,6.32,2.3c-0.85,0.93-2.79,2.95-3.66,3.86
	C67.02,75,65.62,71.74,64.87,70.03 M99.6,37.91L83.69,46.2l0.64,0.95l0.29,0.44l0.22,0.53l0.42,1.12l0.69-0.49
	c1.32-0.85,2.95-1.93,5.64-3.35c0.59,1.12,9.84,18.89,9.84,18.89l0.98-0.63l0.83-0.49l0.76-0.34l1.21-0.52l-0.35-0.62
	c0,0-8.91-17.11-9.49-18.26c1.9-0.97,3.81-1.84,5.69-2.54l0.78-0.29l-0.67-0.98l-0.32-0.49l-0.19-0.5l-0.42-1.08L99.6,37.91z
	 M124.78,30.39l-0.56,0.18l-0.81,0.23l-0.95,0.15l-1.19,0.16l0.17,0.71l5.11,22.93l1.12-0.34l0.91-0.28l0.84-0.12l1.29-0.19
	l-0.18-0.69l-5.08-22.95L124.78,30.39z M154.39,30c-2.62,1.85-4.32,4.69-4.88,8.16c-0.61,3.54,0.05,6.75,1.89,9.32
	c1.91,2.7,4.94,4.46,8.78,5.09c3.86,0.64,7.5-0.09,10.27-2.06c2.68-1.91,4.44-4.87,5.05-8.51c0.56-3.35-0.04-6.29-1.77-8.72
	c-1.97-2.73-5.37-4.7-9.34-5.35C160.67,27.31,157.13,28.05,154.39,30 M160.68,50.21c-5.05-0.86-7.69-5.13-6.72-10.9
	c0.57-3.5,2.01-6.14,4.17-7.68c1.71-1.22,3.84-1.65,6.18-1.26c2.5,0.42,4.67,1.91,5.82,4.01c1.26,2.31,1.24,4.53,0.79,7.13
	c-0.23,2.22-1.7,5.4-4.1,7.2C165.03,50.08,162.96,50.58,160.68,50.21 M201.44,39.83l-11.57,20.49l0.98,0.38l0.5,0.23l0.39,0.28
	l0.92,0.69l0.36-0.68c0,0,7.03-12.42,8.17-14.43c0.47,2.13,4.4,19.73,4.4,19.73l0.56,2.88l0.28,0.17l1.45,0.84l11.91-21.07
	l-1.02-0.43l-0.46-0.2l-0.45-0.3L217,47.76l-0.36,0.67c0,0-6.67,11.76-7.79,13.77c-0.49-2.13-5.11-21.84-5.11-21.84l-1.96-1.12
	L201.44,39.83z M246.23,74.22l-25.81,6.65l1.07,1.07l0.51,0.55l0.37,0.54l0.59,0.9l0.49-0.2c2.74-1.11,5.54-1.95,8.24-2.76
	c0,0,0.19-0.05,0.36-0.12c0.47,0.61,4.24,5.34,4.72,5.93c-1.3,2.42-2.85,5.08-4.63,7.9l-0.29,0.44l0.72,0.78l0.78,0.88l0.6,0.81
	l1,1.47l0.5-0.97l12.21-22.69l-1.01-1.28L246.23,74.22z M241.39,78.29c-0.88,1.63-2.55,4.79-3.16,5.93
	c-0.78-0.97-2.52-3.17-3.31-4.14C236.17,79.72,239.6,78.77,241.39,78.29 M264.42,105.85l-22.25,7.03l4.07,12.9l1-0.44l0.52-0.25
	l0.53-0.11l1.23-0.23l-0.37-0.76l-0.05-0.12l-1.17-2.75l-0.5-1.41c0,0-0.92-2.76-1.21-3.65c1.21-0.37,20.18-6.36,20.18-6.36
	l-0.5-1.2l-0.29-0.78l-0.23-0.93l-0.26-1.18L264.42,105.85z M257.74,142.52c0,2.39,1.97,4.32,4.33,4.32c2.38,0,4.32-1.93,4.32-4.32
	c0-2.38-1.93-4.32-4.32-4.32C259.71,138.2,257.74,140.14,257.74,142.52 M32.69,140.03c0,2.38,1.93,4.31,4.31,4.31
	s4.32-1.93,4.32-4.31c0-2.39-1.94-4.32-4.32-4.32C34.62,135.71,32.69,137.63,32.69,140.03"/>
<path fill="#74808A" d="M150,299.57c-82.57,0-149.75-67.13-149.75-149.66S67.43,0.25,150,0.25s149.75,67.13,149.75,149.66
	S232.56,299.57,150,299.57 M150,2.82C68.83,2.82,2.81,68.81,2.81,149.91c0,81.13,66.01,147.11,147.18,147.11
	c81.16,0,147.19-65.98,147.19-147.11C297.19,68.81,231.15,2.82,150,2.82 M92.24,205.99h115.5v-6.09H92.24V205.99z M111.83,126.32
	l2.03,66.83h2.03l2.03-66.83C117.92,126.32,111.83,126.32,111.83,126.32z M181.41,126.5l2.02,66.82h2.03l2.02-66.82
	C187.48,126.5,181.41,126.5,181.41,126.5z M194.91,126.5l2.02,66.82h2.05l2.01-66.82C200.99,126.5,194.91,126.5,194.91,126.5z
	 M92.25,119.41h115.5v-4.08H92.25V119.41z M98.36,126.32l2.02,66.83h2.03l2.01-66.83C104.42,126.32,98.36,126.32,98.36,126.32z
	 M201.6,108.32c-5.93-14.98-27.28-26.98-51.6-26.98c-24.38,0-45.8,12.2-51.66,27.23c0.4,0.71,2.46-0.11,3.37-1.4
	c0.11-0.17,0.27-0.33,0.44-0.66c7.88-10.79,28.29-19.66,47.84-19.66c19.51,0,37.19,6.81,47.76,19.45c0.34,0.49,1.49,1.94,2.12,2.28
	C201.19,109.27,201.65,108.77,201.6,108.32 M126.06,107.77c-1.17,1.42,4.33,0.26,6.13-0.32c5.89-1.74,12.49-2.97,17.81-2.97
	c6.1,0,13.78,1.19,19.2,3.11c0.76,0.24,3.03,0.73,4.17,0.87c1.3-0.09,0.86-0.53,0.76-0.6c-5.01-4.53-13.92-8.08-23.79-8.08
	C140.53,99.79,131.69,103.29,126.06,107.77 M185.25,106.9c0.43,0.39,1.14,1.08,1.85,1.42c1.38,0.47,2.62,0.65,1.99-0.4
	c-5.86-9.61-21.13-17.42-38.77-17.42c-17.7,0-33.43,7.87-39.42,17.55c-0.4,0.6,0.47,0.6,1.07,0.52c0.86-0.06,2.27-1.08,2.9-1.63
	c7.72-6.21,22.54-11.22,35.45-11.22C163.23,95.72,177.71,100.71,185.25,106.9 M168.56,126.5h-37.82h-6.08l2.03,66.82h2.03
	l1.89-61.76v-0.02h38.1h0.02l1.88,61.78h2.01l2.04-66.82h-6.08C168.58,126.5,168.56,126.5,168.56,126.5z"/>
</svg>
